<svg xmlns="http://www.w3.org/2000/svg" width="48" height="48" viewBox="0 0 48 48" fill="none">
  <defs>
    <linearGradient id="grad1" x1="0%" y1="0%" x2="100%" y2="100%">
      <stop offset="0%" style="stop-color:#0ea5e9;stop-opacity:1" />
      <stop offset="100%" style="stop-color:#0284c7;stop-opacity:1" />
    </linearGradient>
    <linearGradient id="grad2" x1="0%" y1="0%" x2="0%" y2="100%">
      <stop offset="0%" style="stop-color:#38bdf8;stop-opacity:1" />
      <stop offset="100%" style="stop-color:#0369a1;stop-opacity:1" />
    </linearGradient>
  </defs>
  <rect width="48" height="48" rx="12" fill="url(#grad1)"/>
  <ellipse cx="24" cy="16" rx="14" ry="6" fill="url(#grad2)" opacity="0.9"/>
  <path d="M10 16v8c0 3.314 6.268 6 14 6s14-2.686 14-6v-8" stroke="#e0f2fe" stroke-width="2" fill="none" opacity="0.6"/>
  <ellipse cx="24" cy="24" rx="14" ry="6" fill="none" stroke="#e0f2fe" stroke-width="1.5" opacity="0.4"/>
  <path d="M10 24v8c0 3.314 6.268 6 14 6s14-2.686 14-6v-8" stroke="#e0f2fe" stroke-width="2" fill="none" opacity="0.6"/>
  <ellipse cx="24" cy="32" rx="14" ry="6" fill="none" stroke="#e0f2fe" stroke-width="1.5" opacity="0.3"/>
  <ellipse cx="24" cy="16" rx="14" ry="6" fill="none" stroke="#fff" stroke-width="2" opacity="0.8"/>
  <circle cx="18" cy="15.5" r="1.5" fill="#fff" opacity="0.9"/>
  <circle cx="24" cy="14.5" r="1.5" fill="#fff" opacity="0.9"/>
  <circle cx="30" cy="15.5" r="1.5" fill="#fff" opacity="0.9"/>
</svg>
